<?xml version="1.0" standalone="no"?>
<!DOCTYPE svg PUBLIC "-//W3C//DTD SVG 20010904//EN"
 "http://www.w3.org/TR/2001/REC-SVG-20010904/DTD/svg10.dtd">
<svg version="1.0" xmlns="http://www.w3.org/2000/svg"
 width="666.000000pt" height="666.000000pt" viewBox="0 0 666.000000 666.000000"
 preserveAspectRatio="xMidYMid meet">
<metadata>
Created by potrace 1.11, written by Peter Selinger 2001-2013
</metadata>
<g transform="translate(0.000000,666.000000) scale(0.100000,-0.100000)"
fill="#000000" stroke="none">
<path d="M3262 6640 c-18 -11 -41 -34 -52 -52 -19 -31 -20 -51 -20 -428 0
-374 1 -397 20 -427 28 -47 65 -67 121 -67 57 0 95 23 121 75 16 31 18 72 18
424 0 369 -1 392 -20 422 -40 66 -128 91 -188 53z"/>
<path d="M1711 6229 c-69 -15 -115 -71 -114 -141 1 -33 32 -96 118 -240 6 -9
17 -29 26 -45 30 -54 225 -388 239 -409 16 -26 66 -57 98 -62 30 -4 84 14 109
36 60 52 60 124 2 222 -12 19 -82 141 -157 270 -162 282 -187 323 -210 342
-27 24 -74 35 -111 27z"/>
<path d="M4864 6220 c-35 -14 -82 -86 -277 -430 -25 -45 -108 -189 -124 -215
-42 -70 -46 -130 -11 -180 48 -71 155 -81 213 -21 12 13 88 140 124 206 13 25
30 52 37 61 8 8 14 18 14 20 0 5 68 125 180 317 50 86 55 142 20 193 -38 52
-115 74 -176 49z"/>
<path d="M3227 5294 c-1 -1 -39 -4 -84 -8 -45 -3 -88 -8 -95 -10 -7 -3 -32 -7
-56 -10 -24 -3 -62 -11 -85 -17 -23 -6 -53 -13 -67 -16 -31 -5 -212 -65 -265
-88 -133 -56 -343 -178 -439 -256 -316 -255 -537 -559 -655 -903 -80 -232
-106 -391 -106 -646 0 -224 17 -347 74 -547 130 -448 406 -820 812 -1091 58
-39 122 -90 142 -113 38 -44 68 -117 69 -169 1 -17 6 -34 12 -38 6 -4 388 -7
849 -8 748 0 839 2 846 15 5 9 11 35 14 59 11 89 68 164 177 234 372 239 646
574 794 971 38 101 81 252 92 321 3 21 8 48 10 60 29 139 26 479 -7 649 -5 29
-12 63 -14 77 -3 14 -18 71 -34 125 -149 514 -514 955 -986 1193 -120 60 -149
73 -240 106 -127 45 -304 85 -455 102 -51 5 -298 12 -303 8z"/>
<path d="M512 5054 c-47 -20 -74 -59 -80 -112 -8 -93 -5 -95 328 -287 403
-232 395 -228 445 -223 51 6 88 31 109 76 28 58 16 122 -30 163 -19 17 -573
338 -651 378 -45 22 -78 24 -121 5z"/>
<path d="M6056 5062 c-11 -2 -137 -72 -280 -155 -144 -83 -272 -157 -286 -165
-120 -66 -160 -108 -160 -173 0 -49 26 -93 71 -119 57 -32 93 -26 194 31 145
82 167 94 228 130 32 19 66 39 75 44 10 6 65 37 122 69 194 109 217 134 207
222 -9 83 -84 134 -171 116z"/>
<path d="M99 3467 c-37 -10 -75 -46 -90 -86 -26 -68 22 -160 94 -179 18 -4
203 -8 413 -7 357 1 383 2 410 20 42 27 50 36 63 78 22 64 0 123 -59 160 -34
21 -43 21 -416 22 -210 0 -397 -3 -415 -8z"/>
<path d="M5747 3462 c-24 -10 -67 -47 -78 -66 0 -1 -2 -20 -5 -43 -7 -55 17
-106 65 -135 36 -23 38 -23 431 -23 388 0 396 1 430 22 44 27 59 52 66 106 7
53 -19 104 -67 132 -32 19 -53 20 -422 20 -300 0 -396 -3 -420 -13z"/>
<path d="M1095 2209 c-33 -17 -67 -38 -76 -45 -8 -8 -18 -14 -21 -14 -6 0
-205 -114 -425 -242 -113 -67 -143 -101 -143 -164 0 -73 54 -131 126 -138 30
-3 55 5 109 34 120 64 599 342 619 359 10 9 25 30 32 48 39 92 -15 182 -115
190 -37 3 -58 -2 -106 -28z"/>
<path d="M5415 2231 c-36 -15 -74 -62 -81 -98 -8 -44 9 -103 38 -130 22 -19
572 -340 653 -380 104 -51 212 18 202 130 -6 73 -24 91 -157 165 -19 11 -150
86 -290 167 -205 119 -264 148 -300 151 -25 2 -54 0 -65 -5z"/>
<path d="M2487 1248 c-15 -9 -20 -524 -6 -603 24 -131 126 -236 253 -259 69
-13 1168 -9 1216 4 120 32 208 132 229 261 11 66 9 584 -2 596 -11 10 -1673
12 -1690 1z"/>
<path d="M2793 285 c-17 -45 27 -162 79 -211 74 -70 66 -69 448 -69 l345 0 51
27 c84 44 143 131 147 216 l2 47 -533 2 c-448 1 -534 -1 -539 -12z"/>
</g>
</svg>
