<?xml version="1.0" standalone="no"?>
<!DOCTYPE svg PUBLIC "-//W3C//DTD SVG 20010904//EN"
 "http://www.w3.org/TR/2001/REC-SVG-20010904/DTD/svg10.dtd">
<svg version="1.0" xmlns="http://www.w3.org/2000/svg"
 width="512.000000pt" height="512.000000pt" viewBox="0 0 512.000000 512.000000"
 preserveAspectRatio="xMidYMid meet">
<metadata>
Created by potrace 1.14, written by Peter Selinger 2001-2017
</metadata>
<g transform="translate(0.000000,512.000000) scale(0.100000,-0.100000)"
fill="#000000" stroke="none">
<path d="M2468 5096 c-1 -2 -34 -6 -73 -9 -77 -6 -285 -36 -296 -43 -4 -2 -24
-6 -45 -10 -125 -20 -470 -145 -478 -173 -2 -9 -19 -94 -37 -189 l-34 -173
-100 -66 c-470 -307 -810 -783 -945 -1322 -16 -64 -31 -130 -33 -148 -6 -36
-14 -27 159 -171 l112 -93 0 -132 c0 -280 59 -555 171 -801 30 -66 30 -70 17
-115 -13 -46 -13 -61 -1 -110 16 -64 100 -130 165 -131 19 0 36 -13 65 -52 64
-86 264 -278 368 -353 226 -163 462 -270 727 -329 145 -32 238 -41 415 -41
154 1 241 8 355 32 41 8 86 17 99 20 73 13 262 83 376 138 199 96 354 205 505
352 36 35 75 65 85 67 11 2 52 7 90 11 39 5 77 9 85 10 8 1 51 6 95 10 44 4
87 9 95 11 8 1 23 3 32 3 20 1 106 137 177 279 75 150 167 413 184 528 l5 32
-78 -1 -78 -1 -26 -101 c-49 -188 -143 -409 -235 -553 -33 -50 -46 -62 -68
-63 -16 -1 -37 -3 -48 -4 -68 -9 -134 -17 -160 -20 -16 -2 -42 -6 -57 -9 -21
-3 -28 -1 -29 12 0 9 -2 24 -3 32 -2 8 -6 51 -10 95 -4 44 -9 104 -12 133 -5
48 -2 60 35 126 54 99 140 310 141 346 0 3 -36 6 -79 6 l-79 1 -27 -76 c-30
-85 -119 -266 -135 -276 -5 -3 -8 -18 -5 -33 2 -15 7 -63 10 -107 4 -44 8 -98
11 -120 2 -22 7 -75 10 -117 l7 -77 -59 -54 c-299 -277 -657 -438 -1049 -474
-340 -31 -651 28 -960 182 -219 110 -417 268 -578 462 l-35 43 20 42 c55 114
-33 255 -163 260 -39 1 -41 3 -65 57 -55 124 -112 311 -129 425 -17 108 -22
170 -24 284 l-2 130 138 117 c76 65 159 136 186 159 33 28 51 52 59 81 6 22
33 87 60 144 331 713 1151 1036 1883 742 112 -45 205 -99 206 -119 1 -9 2 -95
3 -190 l2 -172 55 -58 c30 -31 70 -75 89 -97 l34 -40 88 -2 c48 0 88 1 88 3 0
19 -119 176 -177 233 l-44 43 -3 200 c-2 109 -6 200 -7 201 -2 1 -22 13 -44
25 -137 79 -389 180 -487 196 -21 3 -57 10 -80 15 -119 27 -393 30 -514 7 -12
-3 -38 -7 -58 -10 -201 -32 -463 -143 -645 -274 -88 -63 -238 -201 -306 -282
-108 -129 -226 -335 -276 -484 l-24 -69 -135 -102 c-74 -56 -141 -105 -148
-109 -8 -5 -43 18 -100 65 -48 40 -91 76 -96 80 -15 13 45 225 106 379 72 178
230 432 358 574 410 457 960 705 1560 703 402 -1 763 -103 1100 -311 l75 -46
85 5 c47 3 117 8 155 10 39 3 102 8 140 11 l71 5 96 -103 c182 -194 296 -357
409 -583 38 -77 89 -194 112 -260 l42 -120 73 -1 c40 0 75 2 77 6 6 10 -56
198 -100 300 -51 121 -147 301 -213 400 -83 127 -228 303 -333 407 l-93 93
-51 -5 c-27 -2 -86 -6 -130 -9 -44 -3 -124 -8 -177 -12 l-98 -6 -72 45 c-261
162 -606 283 -888 312 -36 4 -68 9 -72 12 -11 6 -353 5 -412 -2 -246 -28 -498
-92 -680 -174 -38 -18 -71 -30 -73 -28 -7 7 30 162 41 174 20 21 276 108 376
127 14 2 45 9 70 15 70 16 114 22 277 39 97 11 357 7 471 -7 122 -15 308 -54
424 -90 195 -60 401 -155 406 -186 7 -51 14 -67 44 -100 89 -102 249 -81 308
40 43 89 5 201 -83 244 -55 26 -105 27 -166 1 l-47 -21 -90 41 c-256 118 -458
176 -794 225 -46 7 -425 16 -432 11z m1473 -345 c3 -1 15 -10 27 -21 22 -20
28 -61 16 -95 -9 -22 -57 -45 -85 -40 -39 7 -72 53 -65 88 10 48 47 79 86 71
8 -1 18 -3 21 -3z m-2818 -3103 c20 -24 22 -76 3 -100 -45 -59 -146 -23 -146
52 0 12 14 35 30 52 25 25 35 29 63 23 17 -4 40 -16 50 -27z"/>
<path d="M1205 4794 c-70 -36 -104 -90 -107 -167 -1 -30 -8 -42 -37 -64 -73
-56 -191 -163 -282 -258 -247 -257 -448 -593 -564 -940 -31 -94 -81 -291 -90
-355 -3 -25 -8 -52 -10 -60 -2 -8 -7 -42 -10 -75 -4 -33 -7 -64 -8 -68 -1 -5
60 -53 136 -107 76 -53 142 -101 147 -106 4 -5 11 -64 14 -130 3 -67 8 -128
10 -135 3 -8 7 -41 10 -74 4 -33 8 -69 10 -80 28 -136 39 -182 47 -197 5 -10
8 -18 5 -18 -7 0 34 -122 81 -240 221 -553 667 -1002 1218 -1225 90 -37 77
-18 170 -260 26 -66 52 -125 58 -131 13 -12 173 -45 317 -66 47 -6 171 -12
275 -12 219 -1 330 7 471 35 28 5 64 12 80 15 81 14 374 103 439 133 266 125
363 179 507 284 66 47 69 48 104 37 126 -42 254 48 254 179 0 60 -58 141 -119
167 -120 51 -266 -51 -257 -179 2 -26 -7 -36 -98 -99 -353 -244 -750 -384
-1186 -417 -105 -8 -324 -6 -404 4 -28 3 -69 8 -91 11 -22 3 -76 12 -120 20
l-80 16 -36 88 -36 88 48 -13 c27 -7 49 -11 49 -9 0 3 8 0 17 -5 18 -9 43 -14
168 -32 165 -23 417 -28 557 -9 127 16 138 18 218 35 368 76 735 260 1011 507
38 34 78 63 87 65 9 1 40 5 67 7 73 8 146 16 180 21 17 2 59 6 95 10 36 3 76
10 90 16 25 9 149 186 222 314 119 212 240 541 273 740 3 22 8 47 11 56 4 14
-6 16 -72 15 -88 -1 -78 12 -109 -131 -38 -173 -128 -405 -223 -580 -34 -63
-120 -196 -183 -287 -3 -5 -28 -11 -55 -13 -27 -3 -68 -7 -91 -10 -24 -3 -64
-7 -90 -10 -27 -3 -68 -8 -92 -11 -24 -3 -61 -7 -83 -10 -29 -2 -53 -15 -84
-41 -128 -110 -168 -141 -269 -207 -124 -82 -236 -144 -310 -171 -27 -10 -55
-22 -60 -26 -29 -21 -279 -94 -400 -116 -228 -41 -496 -42 -735 -2 -480 80
-961 367 -1265 754 -192 246 -293 458 -379 798 -54 212 -68 308 -70 466 l-1
122 -143 107 -142 107 4 42 c18 168 106 467 194 655 153 326 388 631 650 842
l72 59 45 -13 c95 -27 184 11 224 94 33 68 22 155 -27 209 -48 53 -155 73
-217 41z m137 -111 c22 -19 26 -42 16 -80 -23 -86 -151 -69 -151 20 0 39 16
65 48 77 25 10 64 2 87 -17z m2976 -3926 c61 -55 -5 -157 -83 -127 -56 21 -72
76 -35 123 32 40 75 42 118 4z"/>
<path d="M2384 4474 c-615 -78 -1161 -450 -1455 -991 -18 -35 -40 -63 -47 -63
-30 0 -94 -43 -119 -82 -48 -71 -33 -186 31 -240 32 -28 85 -48 125 -48 87 0
179 84 182 165 3 69 0 81 -27 120 -25 38 -26 39 -9 74 31 67 163 256 229 329
149 164 319 297 506 395 153 80 353 150 495 173 20 3 47 8 59 10 110 22 472
22 538 0 7 -3 31 -8 53 -11 180 -26 456 -136 638 -254 70 -45 77 -53 78 -83 0
-18 2 -40 3 -48 2 -8 7 -58 11 -110 4 -52 9 -106 10 -120 2 -14 4 -46 4 -71 1
-41 8 -54 71 -133 39 -48 90 -122 115 -164 l45 -77 85 -1 c47 -1 85 0 85 1 0
2 -16 34 -36 72 -45 85 -113 188 -176 266 -26 33 -49 65 -49 71 -1 6 -3 20 -4
31 -1 11 -6 63 -10 115 -4 52 -8 112 -11 133 -2 24 1 38 9 39 22 2 61 5 191
12 l128 7 25 -28 c73 -84 138 -169 198 -258 66 -100 177 -316 210 -410 l17
-51 80 -1 80 -1 -7 25 c-12 48 -78 208 -122 297 -88 176 -217 363 -348 504
l-57 62 -66 -5 c-37 -2 -114 -7 -172 -10 -58 -3 -123 -8 -145 -10 -37 -5 -50
1 -140 61 -121 80 -326 181 -455 222 -105 34 -211 63 -250 67 -33 4 -96 14
-140 22 -62 11 -363 9 -456 -3z m-1430 -1165 c33 -15 52 -62 40 -97 -10 -30
-65 -62 -94 -55 -70 18 -82 127 -17 153 30 12 42 12 71 -1z"/>
<path d="M4005 3873 c-46 -24 -66 -45 -86 -88 -34 -73 -17 -168 38 -217 26
-24 87 -48 121 -48 41 0 62 -29 138 -192 20 -43 42 -79 48 -80 6 0 44 -2 84
-3 54 -1 72 2 68 11 -33 87 -76 177 -120 254 -53 93 -53 94 -39 129 23 55 13
133 -24 179 -16 20 -45 45 -64 54 -43 21 -125 22 -164 1z m135 -108 c53 -48
15 -136 -60 -140 -27 -1 -67 34 -73 62 -6 31 14 77 40 92 23 12 72 5 93 -14z"/>
<path d="M2498 3875 c-2 -2 -26 -5 -55 -9 -171 -20 -378 -96 -533 -197 -249
-161 -448 -419 -537 -696 l-30 -93 -89 -72 c-49 -40 -123 -100 -164 -133 -41
-33 -78 -64 -82 -70 -8 -10 -2 -199 7 -245 2 -14 7 -45 10 -70 11 -80 54 -231
95 -333 22 -54 40 -101 40 -102 0 -2 -8 -5 -17 -8 -14 -3 -12 -6 10 -17 16 -8
40 -36 58 -69 16 -31 58 -95 92 -143 237 -330 577 -556 967 -641 502 -110
1004 14 1402 347 26 22 45 46 43 55 -1 9 -6 48 -9 86 -4 39 -9 81 -11 95 -2
14 -6 56 -10 93 -3 37 -8 77 -10 88 -2 12 17 53 49 102 53 83 97 170 122 241
8 21 14 39 14 40 0 1 -36 2 -80 3 l-80 1 -41 -83 c-22 -45 -61 -113 -86 -151
l-45 -68 27 -160 c15 -89 29 -172 32 -185 5 -30 -23 -56 -158 -146 -140 -95
-353 -187 -480 -209 -322 -56 -539 -45 -794 40 -460 153 -825 543 -950 1016
-32 123 -36 146 -49 299 l-4 46 163 123 163 123 12 56 c46 209 173 428 335
579 182 170 388 268 645 308 60 9 236 11 280 3 19 -3 68 -12 109 -19 40 -8 74
-18 76 -24 21 -79 29 -99 50 -124 93 -111 278 -71 319 69 24 83 -2 153 -73
204 -37 26 -52 30 -104 30 -41 -1 -71 -6 -88 -18 -24 -16 -30 -16 -140 9 -88
20 -147 27 -256 29 -78 1 -144 1 -145 0z m681 -142 c11 -10 24 -32 27 -50 5
-27 1 -37 -25 -63 -24 -25 -37 -30 -60 -27 -41 7 -51 15 -66 50 -15 35 -5 72
23 93 24 19 76 17 101 -3z"/>
<path d="M1345 2602 c-124 -59 -148 -206 -50 -305 15 -15 31 -27 36 -27 5 0
13 -19 19 -42 33 -132 116 -311 203 -437 65 -94 201 -229 305 -304 173 -124
393 -210 602 -236 78 -9 272 -7 350 4 101 14 253 60 360 108 48 21 60 23 85
13 84 -32 189 14 227 102 37 83 7 180 -70 233 -28 19 -48 24 -98 24 -53 0 -68
-4 -105 -30 -51 -37 -80 -88 -82 -151 l-2 -47 -70 -28 c-347 -138 -741 -102
-1056 97 -211 132 -399 376 -479 618 -21 63 -21 70 -6 78 53 30 94 107 91 173
-3 54 -28 98 -77 138 -49 39 -124 47 -183 19z m133 -115 c28 -26 29 -76 2
-105 -12 -12 -24 -22 -28 -23 -4 0 -15 -2 -26 -4 -41 -8 -86 35 -86 83 0 24
28 62 53 71 28 11 57 3 85 -22z m1891 -878 c27 -29 31 -51 15 -88 -12 -29 -46
-51 -80 -51 -9 0 -29 14 -46 30 -25 26 -29 36 -24 63 3 18 16 40 27 50 29 24
84 22 108 -4z"/>
<path d="M154 2550 c-75 -16 -140 -82 -149 -152 -9 -69 6 -109 58 -162 48 -48
49 -51 72 -165 49 -238 124 -459 227 -665 50 -100 64 -123 147 -251 209 -320
543 -629 885 -817 76 -42 80 -46 91 -91 18 -71 83 -129 156 -140 103 -16 208
79 209 187 1 136 -151 227 -270 164 l-45 -24 -85 49 c-481 277 -856 709 -1046
1207 -45 116 -101 307 -119 405 -19 100 -19 101 14 124 43 31 71 90 73 152 1
81 -63 159 -147 177 -22 4 -54 5 -71 2z m87 -130 c24 -24 29 -36 25 -61 -7
-46 -33 -69 -77 -69 -109 0 -105 156 4 159 10 1 32 -12 48 -29z m1477 -2070
c12 -12 23 -25 23 -30 1 -6 2 -16 3 -22 4 -24 -25 -69 -50 -78 -48 -19 -94 7
-107 59 -6 26 15 76 35 84 30 12 75 6 96 -13z"/>
<path d="M4334 2116 c-2 -6 -10 -38 -19 -71 -23 -85 -46 -148 -59 -161 -6 -6
-29 -16 -51 -22 -92 -26 -148 -127 -123 -220 38 -142 219 -189 315 -82 57 64
67 139 29 215 l-25 48 24 63 c21 55 64 201 69 229 2 14 -155 14 -160 1z m-11
-377 c42 -51 2 -133 -64 -131 -38 1 -66 25 -74 63 -17 77 88 128 138 68z"/>
</g>
</svg>
